<?xml version="1.0" encoding="UTF-8"?>
<svg width="24px" height="31px" viewBox="0 0 24 31" version="1.1" xmlns="http://www.w3.org/2000/svg" xmlns:xlink="http://www.w3.org/1999/xlink">
    <!-- Generator: Sketch 50.2 (55047) - http://www.bohemiancoding.com/sketch -->
    <title>Group 32</title>
    <desc>Created with Sketch.</desc>
    <defs></defs>
    <g id="Page-1" stroke="none" stroke-width="1" fill="none" fill-rule="evenodd">
        <g id="图标" transform="translate(-400.000000, -300.000000)" stroke="#506773" stroke-width="1.5">
            <g id="Group-32" transform="translate(401.000000, 301.574788)">
                <path d="M22,3.62352941 L22,24.3072941 L21.9878784,24.3072941 C21.9878784,26.3085142 17.0675293,27.9308235 10.997971,27.9308235 C4.92841278,27.9308235 0.00806364578,26.3085142 0.00806364578,24.3072941 L0,24.3072941 L0,3.62352941 M0.00806364578,24.3764706 C0.00806364578,26.3776906 4.92841278,28 10.997971,28 C17.0675293,28 21.9878784,26.3776906 21.9878784,24.3764706 M10.997971,7.24705882 C17.0675293,7.24705882 21.9878784,5.62474945 21.9878784,3.62352941 C21.9878784,1.62230938 17.0675293,0 10.997971,0 C4.92841278,0 0.00806364578,1.62230938 0.00806364578,3.62352941 C0.00806364578,5.62474945 4.92841278,7.24705882 10.997971,7.24705882 Z M0.00806364578,10.3418824 C0.00806364578,12.3431024 4.92841278,13.9654118 10.997971,13.9654118 C17.0675293,13.9654118 21.9878784,12.3431024 21.9878784,10.3418824 M0.00806364578,17.5889412 C0.00806364578,19.5901612 4.92841278,21.2124706 10.997971,21.2124706 C17.0675293,21.2124706 21.9878784,19.5901612 21.9878784,17.5889412" id="Combined-Shape"></path>
            </g>
        </g>
    </g>
</svg>