<?xml version="1.0" encoding="UTF-8"?>
<svg width="27px" height="31px" viewBox="0 0 27 31" version="1.1" xmlns="http://www.w3.org/2000/svg" xmlns:xlink="http://www.w3.org/1999/xlink">
    <!-- Generator: Sketch 50.2 (55047) - http://www.bohemiancoding.com/sketch -->
    <title>Group 38</title>
    <desc>Created with Sketch.</desc>
    <defs></defs>
    <g id="Page-1" stroke="none" stroke-width="1" fill="none" fill-rule="evenodd">
        <g id="图标" transform="translate(-649.000000, -300.000000)" fill="#506773" fill-rule="nonzero">
            <g id="Group-38" transform="translate(649.000000, 300.000000)">
                <path d="M3.61812602,10.0368528 L3.61812602,19.7406197 C3.61812602,21.0440117 4.67473401,22.1006197 5.97812602,22.1006197 L22.6951258,22.1006197 L22.6951258,12.3968528 C22.6951258,11.0934608 21.6385178,10.0368528 20.3351258,10.0368528 L3.61812602,10.0368528 Z M2.01812602,8.43685284 L20.3351258,8.43685284 C22.5221734,8.43685284 24.2951258,10.2098052 24.2951258,12.3968528 L24.2951258,23.7006197 L5.97812602,23.7006197 C3.79107842,23.7006197 2.01812602,21.9276673 2.01812602,19.7406197 L2.01812602,8.43685284 Z M3.64089077,10.9 L2.04089077,10.9 L2.04089077,5.45750057 L3.64089077,5.45750057 L3.64089077,10.9 Z M24.2860504,25.8545985 L22.6860504,25.8545985 L22.6860504,20.4120991 L24.2860504,20.4120991 L24.2860504,25.8545985 Z M2.93965084,6.41475242 C1.40429924,6.41475242 0.159650843,5.17010402 0.159650843,3.63475242 C0.159650843,2.09940081 1.40429924,0.854752415 2.93965084,0.854752415 C4.47500245,0.854752415 5.71965084,2.09940081 5.71965084,3.63475242 C5.71965084,5.17010402 4.47500245,6.41475242 2.93965084,6.41475242 Z M2.93965084,4.81475242 C3.59134685,4.81475242 4.11965084,4.28644842 4.11965084,3.63475242 C4.11965084,2.98305641 3.59134685,2.45475242 2.93965084,2.45475242 C2.28795484,2.45475242 1.75965084,2.98305641 1.75965084,3.63475242 C1.75965084,4.28644842 2.28795484,4.81475242 2.93965084,4.81475242 Z M23.4860504,30.4771528 C21.9506988,30.4771528 20.7060504,29.2325044 20.7060504,27.6971528 C20.7060504,26.1618012 21.9506988,24.9171528 23.4860504,24.9171528 C25.021402,24.9171528 26.2660504,26.1618012 26.2660504,27.6971528 C26.2660504,29.2325044 25.021402,30.4771528 23.4860504,30.4771528 Z M23.4860504,28.8771528 C24.1377464,28.8771528 24.6660504,28.3488488 24.6660504,27.6971528 C24.6660504,27.0454568 24.1377464,26.5171528 23.4860504,26.5171528 C22.8343544,26.5171528 22.3060504,27.0454568 22.3060504,27.6971528 C22.3060504,28.3488488 22.8343544,28.8771528 23.4860504,28.8771528 Z" id="Rectangle-5"></path>
            </g>
        </g>
    </g>
</svg>