<?xml version="1.0" encoding="UTF-8"?>
<svg width="51px" height="50px" viewBox="0 0 51 50" version="1.1" xmlns="http://www.w3.org/2000/svg" xmlns:xlink="http://www.w3.org/1999/xlink">
    <!-- Generator: Sketch 50.2 (55047) - http://www.bohemiancoding.com/sketch -->
    <title>Group 43</title>
    <desc>Created with Sketch.</desc>
    <defs></defs>
    <g id="Page-1" stroke="none" stroke-width="1" fill="none" fill-rule="evenodd">
        <g id="图标" transform="translate(-222.000000, -105.000000)">
            <g id="Group-43" transform="translate(222.562688, 105.845492)">
                <circle id="Oval-8" stroke="#5F67FA" stroke-width="2" cx="24.7940923" cy="24.1436642" r="24"></circle>
                <path d="M17.2590046,32.7081088 C14.732357,30.394819 13.25,27.119172 13.25,23.6 C13.25,16.7792833 18.7792833,11.25 25.6,11.25 C32.4207167,11.25 37.95,16.7792833 37.95,23.6 C37.95,30.4207167 32.4207167,35.95 25.6,35.95 C25.5060173,35.95 25.3911108,35.9517244 25.2310525,35.9553277 C25.1377191,35.9574289 25.0037477,35.9607892 24.7375738,35.9674373 C21.3396496,36.0496375 18.471362,35.8534092 14.9029438,35.0041188 C14.299297,34.8604497 13.8114433,34.1659555 14.5226851,33.5870853 C14.6715509,33.4659254 14.8384464,33.39594 15.1138316,33.3068975 C15.2833341,33.2520909 15.4887832,33.1935706 15.784426,33.1141569 C15.8700015,33.0911701 16.4037299,32.9498314 16.5605897,32.9074105 C16.8335429,32.8335936 17.0641788,32.7680344 17.2590046,32.7081088 Z M24.7012975,34.467876 C24.9652712,34.4612816 25.1016736,34.4578603 25.1972926,34.4557077 C25.3676648,34.4518722 25.4924177,34.45 25.6,34.45 C31.5922895,34.45 36.45,29.5922895 36.45,23.6 C36.45,17.6077105 31.5922895,12.75 25.6,12.75 C19.6077105,12.75 14.75,17.6077105 14.75,23.6 C14.75,26.9885147 16.3125515,30.1175394 18.9345932,32.1619087 C19.376493,32.5064518 19.4110356,33.0915887 19.0413115,33.4881445 C18.8813489,33.6597159 18.6719002,33.7802979 18.3846155,33.9006971 C18.244819,33.9592849 18.0885683,34.0166035 17.907717,34.0760495 C20.2007621,34.4414182 22.3101802,34.5257202 24.7012975,34.467876 Z M30.8,24.8176566 C31.4627417,24.8176566 32,24.2803983 32,23.6176566 C32,22.9549149 31.4627417,22.4176566 30.8,22.4176566 C30.1372583,22.4176566 29.6,22.9549149 29.6,23.6176566 C29.6,24.2803983 30.1372583,24.8176566 30.8,24.8176566 Z M25.8,24.8176566 C26.4627417,24.8176566 27,24.2803983 27,23.6176566 C27,22.9549149 26.4627417,22.4176566 25.8,22.4176566 C25.1372583,22.4176566 24.6,22.9549149 24.6,23.6176566 C24.6,24.2803983 25.1372583,24.8176566 25.8,24.8176566 Z M20.8,24.8176566 C21.4627417,24.8176566 22,24.2803983 22,23.6176566 C22,22.9549149 21.4627417,22.4176566 20.8,22.4176566 C20.1372583,22.4176566 19.6,22.9549149 19.6,23.6176566 C19.6,24.2803983 20.1372583,24.8176566 20.8,24.8176566 Z" id="Oval-3" fill="#506773" fill-rule="nonzero"></path>
            </g>
        </g>
    </g>
</svg>