<?xml version="1.0" encoding="UTF-8"?>
<svg width="50px" height="51px" viewBox="0 0 50 51" version="1.1" xmlns="http://www.w3.org/2000/svg" xmlns:xlink="http://www.w3.org/1999/xlink">
    <!-- Generator: Sketch 50.2 (55047) - http://www.bohemiancoding.com/sketch -->
    <title>流程 (1)</title>
    <desc>Created with Sketch.</desc>
    <defs></defs>
    <g id="Page-1" stroke="none" stroke-width="1" fill="none" fill-rule="evenodd">
        <g id="图标" transform="translate(-510.000000, -104.000000)">
            <g id="流程-(1)" transform="translate(511.000000, 105.845492)">
                <circle id="Oval-8" stroke="#00B5D1" stroke-width="2" cx="24" cy="24" r="24"></circle>
                <path d="M26.4332931,12 L22.5664844,12 C20.9650672,12 19.6666243,13.2917386 19.6666243,14.8846215 C19.6666243,16.4775043 20.9650672,17.7691164 22.5664844,17.7691164 L26.4332931,17.7691164 C28.034742,17.7691164 29.3333757,16.4775676 29.3333757,14.8846531 C29.3333757,13.2917386 28.034742,12 26.4332931,12 Z M26.4332931,15.8462147 L22.5664844,15.8462147 C22.0332534,15.8446342 21.601379,15.4150529 21.5997902,14.8846531 C21.601379,14.3542533 22.0332534,13.9246719 22.5664844,13.9230915 L26.4332931,13.9230915 C26.966524,13.9246719 27.3983984,14.3542533 27.3999873,14.8846531 C27.3983984,15.4150529 26.966524,15.8446342 26.4332931,15.8462147 Z M26.4332931,21.6153311 L22.5664844,21.6153311 C20.9650672,21.6153311 19.6666243,22.9070697 19.6666243,24.4999842 C19.6666243,26.0928987 20.9650672,27.3844475 22.5664844,27.3844475 L26.4332931,27.3844475 C28.034742,27.3844475 29.3333757,26.0928987 29.3333757,24.4999842 C29.3333757,22.9070697 28.034742,21.6153311 26.4332931,21.6153311 Z M26.4332931,25.4615458 L22.5664844,25.4615458 C22.0332534,25.4599653 21.601379,25.030384 21.5997902,24.4999842 C21.601379,23.9695844 22.0332534,23.540003 22.5664844,23.5384226 L26.4332931,23.5384226 C26.966524,23.540003 27.3983984,23.9695844 27.3999873,24.4999842 C27.3983984,25.030384 26.966524,25.4599653 26.4332931,25.4615458 Z M26.4332931,31.2306622 L22.5664844,31.2306622 C20.9650672,31.2306622 19.6666243,32.5224008 19.6666243,34.1153153 C19.6666243,35.7082298 20.9650672,37 22.5664844,37 L26.4332931,37 C28.034742,37 29.3333757,35.7082614 29.3333757,34.1153153 C29.3333757,32.5223692 28.034742,31.2306622 26.4332931,31.2306622 Z M26.4332931,35.0768769 L22.5664844,35.0768769 C22.0332534,35.0752964 21.601379,34.6457151 21.5997902,34.1153153 C21.6013965,33.5849278 22.0332658,33.1553657 22.5664844,33.1537853 L26.4332931,33.1537853 C26.9665117,33.1553657 27.398381,33.5849278 27.3999873,34.1153153 C27.3983984,34.6457151 26.966524,35.0752964 26.4332931,35.0768769 Z M15.799911,33.1537853 C14.7655571,33.1537853 13.7957469,32.7531452 13.0641765,32.0287798 C12.3359127,31.3012834 11.9333884,30.3364327 11.9333884,29.307539 C11.9333884,28.278677 12.3359127,27.3140161 13.0641765,26.5865197 C13.7957469,25.8588335 14.7655253,25.4615458 15.799911,25.4615458 L17.7332994,25.4615458 L17.7332994,23.5384226 L15.799911,23.5384226 C12.5970766,23.5384226 10,26.1214887 10,29.3073493 C10,32.4931782 12.5968541,35.0766871 15.799911,35.0766871 L15.799911,36.9997786 L18.6999936,34.1151255 L15.799911,31.2304408 L15.799911,33.153564 L15.799911,33.1537853 Z M33.1998665,13.9228701 L31.2667324,13.9228701 L31.2667324,15.8459933 L33.1998665,15.8459933 C34.2342522,15.8459933 35.2042531,16.2466018 35.9356327,16.9707774 C36.6669806,17.6984952 37.0666116,18.6631245 37.0666116,19.6920182 C37.0666116,20.7208802 36.6638647,21.6855412 35.9356327,22.4132273 C35.2042531,23.1376244 34.2342522,23.5380115 33.1998665,23.5380115 L33.1998665,21.6151413 L30.3000064,24.4999842 L33.1998665,27.3844475 L33.1998665,25.4615458 C36.4027326,25.4615458 39,22.8780685 39,19.6922079 C39,16.5063474 36.4029234,13.9230915 33.1998665,13.9230915 L33.1998665,13.9228701 Z" id="Shape" fill="#506773" fill-rule="nonzero"></path>
            </g>
        </g>
    </g>
</svg>