<?xml version="1.0" encoding="UTF-8"?>
<svg width="50px" height="51px" viewBox="0 0 50 51" version="1.1" xmlns="http://www.w3.org/2000/svg" xmlns:xlink="http://www.w3.org/1999/xlink">
    <!-- Generator: Sketch 50.2 (55047) - http://www.bohemiancoding.com/sketch -->
    <title>Group 32</title>
    <desc>Created with Sketch.</desc>
    <defs></defs>
    <g id="Page-1" stroke="none" stroke-width="1" fill="none" fill-rule="evenodd">
        <g id="图标" transform="translate(-587.000000, -104.000000)">
            <g id="Group-32" transform="translate(588.000000, 105.845492)">
                <circle id="Oval-8" stroke="#1DBD65" stroke-width="2" cx="24" cy="24" r="24"></circle>
                <path d="M33.0092935,15.402 L33.0092935,33.202965 L32.99897,33.202965 C32.99897,34.925265 28.8084887,36.321465 23.639268,36.321465 C18.4700473,36.321465 14.279566,34.925265 14.279566,33.202965 L14.2726984,33.202965 L14.2726984,15.402 M14.279566,33.2625 C14.279566,34.9848 18.4700473,36.381 23.639268,36.381 C28.8084887,36.381 32.99897,34.9848 32.99897,33.2625 M23.639268,18.5205 C28.8084887,18.5205 32.99897,17.1243 32.99897,15.402 C32.99897,13.6797 28.8084887,12.2835 23.639268,12.2835 C18.4700473,12.2835 14.279566,13.6797 14.279566,15.402 C14.279566,17.1243 18.4700473,18.5205 23.639268,18.5205 Z M14.279566,21.1839825 C14.279566,22.9062825 18.4700473,24.3024825 23.639268,24.3024825 C28.8084887,24.3024825 32.99897,22.9062825 32.99897,21.1839825 M14.279566,27.4209825 C14.279566,29.1432825 18.4700473,30.5394825 23.639268,30.5394825 C28.8084887,30.5394825 32.99897,29.1432825 32.99897,27.4209825" id="Combined-Shape" stroke="#506773" stroke-width="1.5"></path>
            </g>
        </g>
    </g>
</svg>