<?xml version="1.0" encoding="UTF-8"?>
<svg width="51px" height="51px" viewBox="0 0 51 51" version="1.1" xmlns="http://www.w3.org/2000/svg" xmlns:xlink="http://www.w3.org/1999/xlink">
    <!-- Generator: Sketch 50.2 (55047) - http://www.bohemiancoding.com/sketch -->
    <title>Group 29 Copy</title>
    <desc>Created with Sketch.</desc>
    <defs></defs>
    <g id="Page-1" stroke="none" stroke-width="1" fill="none" fill-rule="evenodd">
        <g id="图标" transform="translate(-147.000000, -191.000000)">
            <g id="Group-29-Copy" transform="translate(148.778018, 192.579980)">
                <circle id="Oval-8" stroke="#178CEB" stroke-width="2" cx="24" cy="24" r="24"></circle>
                <g id="数据分析-(1)" transform="translate(10.000000, 11.000000)" fill="#506773" fill-rule="nonzero">
                    <path d="M25,13.5254395 C25,9.58267829 23.0107143,6.10797484 19.9839286,4.04101758 C20.0428571,3.79626983 20.0821429,3.54258969 20.0821429,3.27819066 C20.0821429,1.4684865 18.6142857,0 16.8035714,0 C15.4232143,0 14.2482143,0.853937389 13.7642857,2.06159783 C13.6839286,2.05981135 13.6053571,2.04909247 13.525,2.04909247 C7.24464283,2.04909247 2.14999999,7.09589825 2.05714285,13.3557239 C0.851785701,13.8398599 0,15.0153637 0,16.3927397 C0,18.2024439 1.46785715,19.6709304 3.27857143,19.6709304 C3.46071429,19.6709304 3.6375,19.6459197 3.8125,19.617336 C5.84285714,22.8472917 9.42857142,25 13.5232143,25 C15.0660714,25 16.5375,24.690939 17.8821428,24.1371302 C18.4642857,24.6677147 19.2321428,25 20.0803571,25 C21.8910714,25 23.3589285,23.5315135 23.3589285,21.7200229 C23.3589285,21.128698 23.1910714,20.5820351 22.9160714,20.1032585 C24.2267857,18.23996 25,15.9747034 25,13.5254395 Z M21.8118716,18.9626748 C21.3191479,18.6697445 20.749099,18.4900326 20.1340936,18.4900326 C18.3106564,18.4900326 16.8324853,19.9672641 16.8324853,21.7895423 C16.8324853,22.1435746 16.9026175,22.4796358 17.0069167,22.7995229 C15.9243632,23.2056717 14.7554933,23.4375 13.5308771,23.4375 C10.0764167,23.4375 7.04095116,21.6691353 5.26786526,18.9914287 C6.02133684,18.3875969 6.51585879,17.4692693 6.51585879,16.4269405 C6.51585879,14.752026 5.26247048,13.3844188 3.64583333,13.1723588 C3.84004558,7.87804753 8.18644378,3.64583333 13.5308771,3.64583333 C13.5452632,3.64583333 13.557851,3.64763045 13.5722371,3.64763045 C13.7772389,5.27222563 15.1511108,6.53200575 16.8324853,6.53200575 C17.7891605,6.53200575 18.6433347,6.11866849 19.2475506,5.46990867 C21.7795028,7.26163587 23.4375,10.2053161 23.4375,13.5407681 C23.4357018,15.5445553 22.8350824,17.404573 21.8118716,18.9626748 Z" id="Shape"></path>
                </g>
            </g>
        </g>
    </g>
</svg>