<?xml version="1.0" encoding="UTF-8"?>
<svg width="51px" height="51px" viewBox="0 0 51 51" version="1.1" xmlns="http://www.w3.org/2000/svg" xmlns:xlink="http://www.w3.org/1999/xlink">
    <!-- Generator: Sketch 50.2 (55047) - http://www.bohemiancoding.com/sketch -->
    <title>Group 42</title>
    <desc>Created with Sketch.</desc>
    <defs></defs>
    <g id="Page-1" stroke="none" stroke-width="1" fill="none" fill-rule="evenodd">
        <g id="图标" transform="translate(-223.000000, -191.000000)">
            <g id="Group-42" transform="translate(224.562688, 192.579980)">
                <g id="Group-43-Copy" stroke="#178CEB" stroke-width="2">
                    <g id="Group-35">
                        <g id="Group-31-Copy-5">
                            <g id="Group-30-Copy-2">
                                <g id="Group-29-Copy-3">
                                    <circle id="Oval-8" cx="24" cy="24" r="24"></circle>
                                </g>
                            </g>
                        </g>
                    </g>
                </g>
                <g id="网络" transform="translate(10.000000, 11.000000)" fill="#506773" fill-rule="nonzero">
                    <path d="M13.4999719,5.61964716e-05 C6.07498736,5.61964716e-05 0,6.01377491 0,13.5 C0,20.9863938 6.07498736,26.9999438 13.4999719,26.9999438 C17.0835492,27.0102913 20.5233352,25.5913029 23.0573176,23.0573258 C25.5913,20.5233487 27.0102913,17.0835698 26.9999438,13.5 C27.0102913,9.91643017 25.5913,6.47665129 23.0573176,3.9426742 C20.5233352,1.40869711 17.0835492,-0.0102912547 13.4999719,5.61964716e-05 Z M9.87944819,1.77951754 L9.14302472,2.70004496 C9.14302472,2.7614697 9.08159985,2.7614697 9.08159985,2.82289445 C8.59070712,3.49789164 8.16107051,4.29556957 7.79302753,5.15467224 C7.79302753,5.21592823 7.73177141,5.27735298 7.73177141,5.27735298 C7.73177141,5.33877772 7.67034654,5.40020247 7.67034654,5.46145846 C6.93392307,5.09324749 6.25909322,4.66378053 5.64535075,4.17288883 C6.81141082,3.06808718 8.28408901,2.27040925 9.87944819,1.77951754 Z M4.66356529,4.97056676 C5.39998876,5.5841392 6.19766835,6.13645565 7.17945381,6.56592261 C7.17945381,6.62734736 7.11802893,6.6887721 7.11802893,6.6887721 C6.81124207,7.60929952 6.56571133,8.65250768 6.44303034,9.69554709 C6.44303034,9.81839658 6.38160547,9.94107731 6.38160547,10.1251828 C6.3201806,10.5546498 6.25892447,10.9228607 6.25892447,11.3523277 C6.25892447,11.5364332 6.25892447,11.6591139 6.1974996,11.8432194 C6.1974996,12.2114304 6.1974996,12.5182166 6.13607473,12.8864276 L1.22714745,12.8864276 C1.41125331,9.81822783 2.69999438,7.05681432 4.66356529,4.97056676 Z M1.22714745,14.1135724 L6.13624348,14.1135724 C6.13624348,14.4817834 6.13624348,14.8498256 6.19766835,15.1569494 C6.19766835,15.3410548 6.19766835,15.4637356 6.25909322,15.6478411 C6.32034935,16.077308 6.32034935,16.4456877 6.38177422,16.8748172 C6.38177422,16.9978354 6.44319909,17.1205162 6.44319909,17.3046217 C6.62730496,18.3476611 6.87266695,19.3908692 7.11819768,20.3113966 C7.11819768,20.3724839 7.17962256,20.4342461 7.17962256,20.4342461 C6.27638667,20.8564895 5.43089162,21.3925716 4.66373404,22.0294332 C2.69999438,19.9431857 1.41125331,17.1817722 1.22714745,14.1135724 Z M5.58409463,22.8272799 C6.19766835,22.3363882 6.87266695,21.9069213 7.60909041,21.5385415 C7.60909041,21.5997975 7.67034654,21.6612223 7.67034654,21.7228158 C7.67034654,21.783903 7.73177141,21.8453278 7.73177141,21.8453278 C8.09998314,22.7045992 8.529451,23.5021084 9.02034373,24.1772743 C9.02034373,24.2383615 9.08159985,24.2383615 9.08159985,24.3001238 L9.81802332,25.2204825 C8.28408901,24.7295908 6.81141082,23.9319128 5.58409463,22.8272799 Z M12.8863982,25.7112054 C11.1681893,25.3429945 9.69534232,23.6249579 8.71355686,21.1090746 C10.0021292,20.6183516 11.4135512,20.3726526 12.8863982,20.3113966 L12.8863982,25.7112054 Z M12.8863982,19.022827 C11.2296141,19.084083 9.69534232,19.391038 8.28408901,19.8820984 C7.73194016,18.1635556 7.42498455,16.2003263 7.36355967,14.0523165 L12.8863982,14.0523165 L12.8863982,19.022827 Z M12.8863982,12.8864276 L7.36355967,12.8864276 C7.42498455,10.7385865 7.73177141,8.77501967 8.28408901,7.05681432 C9.69534232,7.54770603 11.2296141,7.85449225 12.8863982,7.91591699 L12.8863982,12.8864276 Z M12.8863982,6.7500281 C11.4636703,6.69184433 10.0574321,6.42302865 8.71355686,5.95235017 C9.69534232,3.37504215 11.2294454,1.6568368 12.8863982,1.35005058 L12.8863982,6.7500281 Z M25.7729651,12.8864276 L20.8637003,12.8864276 C20.8637003,12.5182166 20.8637003,12.1500056 20.8024442,11.8432194 C20.8024442,11.6591139 20.8024442,11.5364332 20.7408506,11.3523277 C20.6797632,10.9228607 20.6797632,10.5546498 20.6183383,10.1251828 C20.6183383,10.0023333 20.5567447,9.87965257 20.5567447,9.69554709 C20.3726388,8.65250768 20.1272769,7.60929952 19.8820836,6.6887721 C19.8820836,6.62734736 19.82049,6.56592261 19.82049,6.56592261 C20.7237628,6.1435824 21.5693086,5.60744733 22.3365473,4.97056676 C24.3001182,7.05681432 25.5888592,9.81822783 25.7729651,12.8864276 Z M21.4158492,4.17272008 C20.8022755,4.66361178 20.1271081,5.09324749 19.3908534,5.46128971 C19.3908534,5.40003372 19.3295973,5.33860897 19.3295973,5.27718423 C19.3295973,5.21575948 19.2681724,5.15450349 19.2681724,5.15450349 C18.8999607,4.29540082 18.4704928,3.49772289 17.9794313,2.8227257 C17.9794313,2.76130095 17.9181752,2.76130095 17.9181752,2.69987621 L17.1819205,1.77934879 C18.715686,2.27040925 20.188533,3.06808718 21.4158492,4.17272008 Z M14.1135456,1.28862583 C15.8319233,1.6568368 17.3046015,3.3748734 18.2863869,5.89092542 C16.9978146,6.38181713 15.5863926,6.62717861 14.1135456,6.68860335 L14.1135456,1.28862583 Z M14.1135456,7.97717299 C15.7703297,7.91591699 17.3046015,7.60896202 18.715686,7.11807032 C19.2681724,8.83644441 19.5749593,10.8000112 19.6362154,12.9476835 L14.1133769,12.9476835 L14.1133769,7.97717299 L14.1135456,7.97717299 Z M14.1135456,14.1135724 L19.6363841,14.1135724 C19.575128,16.2614135 19.2681724,18.2251491 18.7158548,19.9431857 C17.3047702,19.452294 15.7704984,19.1455077 14.1137144,19.084083 L14.1137144,14.1135724 L14.1135456,14.1135724 Z M14.1135456,25.7112054 L14.1135456,20.2501407 C15.5362755,20.3083071 16.9425162,20.5771232 18.2863869,21.0478186 C17.3046015,23.6249579 15.8317545,25.3431632 14.1135456,25.7112054 Z M17.1204956,25.2204825 C17.3658576,24.9136962 17.6112196,24.6067413 17.8567503,24.3001238 C17.8567503,24.2385303 17.9180065,24.2385303 17.9180065,24.1772743 C18.4090679,23.5021084 18.8385358,22.7044304 19.2067475,21.8453278 C19.2067475,21.7840718 19.2680036,21.7228158 19.2680036,21.7228158 C19.2680036,21.6612223 19.3294285,21.5997975 19.3294285,21.5385415 C20.065852,21.9069213 20.7405131,22.3363882 21.3544243,22.8272799 C20.188533,23.9319128 18.715686,24.7295908 17.1204956,25.2204825 Z M22.3363785,22.0294332 C21.599955,21.4158608 20.8022755,20.8637131 19.8203212,20.4342461 C19.8203212,20.3726526 19.8819149,20.3113966 19.8819149,20.3113966 C20.1883642,19.3908692 20.4340637,18.3474923 20.556576,17.3046217 C20.556576,17.1817722 20.6181696,17.0590914 20.6181696,16.8748172 C20.6794257,16.445519 20.7406818,16.0771393 20.7406818,15.6478411 C20.7406818,15.4637356 20.7406818,15.3410548 20.8022755,15.1569494 C20.8022755,14.7887384 20.8022755,14.4817834 20.8635316,14.1135724 L25.7727964,14.1135724 C25.5888592,17.1817722 24.3001182,19.9431857 22.3363785,22.0294332 Z" id="Shape"></path>
                </g>
            </g>
        </g>
    </g>
</svg>