<?xml version="1.0" encoding="UTF-8"?>
<svg width="51px" height="51px" viewBox="0 0 51 51" version="1.1" xmlns="http://www.w3.org/2000/svg" xmlns:xlink="http://www.w3.org/1999/xlink">
    <!-- Generator: Sketch 50.2 (55047) - http://www.bohemiancoding.com/sketch -->
    <title>Group 45</title>
    <desc>Created with Sketch.</desc>
    <defs></defs>
    <g id="Page-1" stroke="none" stroke-width="1" fill="none" fill-rule="evenodd">
        <g id="图标" transform="translate(-317.000000, -189.000000)">
            <g id="Group-45" transform="translate(317.987176, 190.531786)">
                <circle id="Oval-8" stroke="#178CEB" stroke-width="2" cx="24.7940923" cy="24.1436642" r="24"></circle>
                <path d="M31.5938075,19.2107532 L30.710828,19.4796856 L30.5700759,18.5674541 C30.0402701,15.1337183 27.0714055,12.565597 23.5600837,12.565597 C19.6425433,12.565597 16.4667493,15.741391 16.4667493,19.6589314 C16.4667493,19.9835986 16.4885084,20.3053175 16.531578,20.6227122 L16.6894898,21.7864179 L15.5487529,21.5073721 C15.1290258,21.4046989 14.695692,21.3522658 14.2548341,21.3522658 C11.259315,21.3522658 8.83096698,23.7806138 8.83096698,26.7761329 C8.83096698,29.771652 11.259315,32.2 14.2548341,32.2 C14.3354939,32.2 14.4159182,32.1982449 14.5312203,32.1939841 L33.530967,32.2 C37.1970696,32.2 40.169033,29.2280366 40.169033,25.561934 C40.169033,21.8958313 37.1970696,18.9238679 33.530967,18.9238679 C32.8664471,18.9238679 32.2159156,19.0212753 31.5938075,19.2107532 Z M33.530967,17.3238679 C38.0807252,17.3238679 41.769033,21.0121757 41.769033,25.561934 C41.769033,30.1116922 38.0807252,33.8 33.5307137,33.8 L14.5658607,33.7932227 C14.4624593,33.7977371 14.358767,33.8 14.2548341,33.8 C10.3756594,33.8 7.23096698,30.6553076 7.23096698,26.7761329 C7.23096698,22.8969583 10.3756594,19.7522658 14.2548341,19.7522658 C14.4602876,19.7522658 14.664667,19.7611089 14.8675585,19.778668 C14.8670192,19.7387883 14.8667493,19.6988755 14.8667493,19.6589314 C14.8667493,14.8577354 18.7588877,10.965597 23.5600837,10.965597 C27.5678729,10.965597 30.9982104,13.6945301 31.9757134,17.4706062 C32.4844647,17.3733457 33.0045817,17.3238679 33.530967,17.3238679 Z M26.9535846,24.6598495 L25.3681184,24.4446822 C25.9189886,20.38558 29.3973678,17.3238679 33.530967,17.3238679 L33.530967,18.9238679 C30.2004935,18.9238679 27.3971532,21.3914026 26.9535846,24.6598495 Z M14.4960732,32.1947454 L14.5658607,33.7932227 C14.4624593,33.7977371 14.358767,33.8 14.2548341,33.8 L14.2548341,32.2 C14.3354939,32.2 14.4159182,32.1982449 14.4960732,32.1947454 Z" id="Combined-Shape" fill="#506773" fill-rule="nonzero"></path>
            </g>
        </g>
    </g>
</svg>