<?xml version="1.0" encoding="UTF-8"?>
<svg width="50px" height="51px" viewBox="0 0 50 51" version="1.1" xmlns="http://www.w3.org/2000/svg" xmlns:xlink="http://www.w3.org/1999/xlink">
    <!-- Generator: Sketch 50.2 (55047) - http://www.bohemiancoding.com/sketch -->
    <title>Group 33</title>
    <desc>Created with Sketch.</desc>
    <defs></defs>
    <g id="Page-1" stroke="none" stroke-width="1" fill="none" fill-rule="evenodd">
        <g id="图标" transform="translate(-411.000000, -189.000000)">
            <g id="Group-33" transform="translate(412.000000, 190.819114)">
                <circle id="Oval-8" stroke="#F3BF25" stroke-width="2" cx="24" cy="24" r="24"></circle>
                <path d="M23.7529207,16.8 C23.122441,16.8 22.5379177,16.4701266 22.2120284,15.9304037 L20.9840138,13.8966218 C20.9478039,13.8366526 20.8828568,13.8 20.8128035,13.8 L13,13.8 C12.8895431,13.8 12.8,13.8895431 12.8,14 L12.8,32 C12.8,33.2150264 13.7849736,34.2 15,34.2 L33,34.2 C34.2150264,34.2 35.2,33.2150264 35.2,32 L35.2,17 C35.2,16.8895431 35.1104569,16.8 35,16.8 L23.7529207,16.8 Z M23.7529207,15.2 L35,15.2 C35.9941125,15.2 36.8,16.0058875 36.8,17 L36.8,32 C36.8,34.098682 35.098682,35.8 33,35.8 L15,35.8 C12.901318,35.8 11.2,34.098682 11.2,32 L11.2,14 C11.2,13.0058875 12.0058875,12.2 13,12.2 L20.8128035,12.2 C21.4432832,12.2 22.0278065,12.5298734 22.3536958,13.0695963 L23.5817104,15.1033782 C23.6179203,15.1633474 23.6828674,15.2 23.7529207,15.2 Z M15,35.8 L15,34.2 C16.2150264,34.2 17.2,33.2150264 17.2,32 L17.2,21.8092508 L35.5,21.8092508 L35.5,23.4092508 L18.8,23.4092508 L18.8,32 C18.8,32.8198978 18.540336,33.5791479 18.0987583,34.2 L31.3082795,34.2 L31.3082795,35.8 L15,35.8 L15,34.2 L18.0987583,34.2 C17.4100352,35.1683351 16.2787842,35.8 15,35.8 Z" id="Combined-Shape" fill="#506773" fill-rule="nonzero"></path>
            </g>
        </g>
    </g>
</svg>