<?xml version="1.0" encoding="UTF-8"?>
<svg width="51px" height="51px" viewBox="0 0 51 51" version="1.1" xmlns="http://www.w3.org/2000/svg" xmlns:xlink="http://www.w3.org/1999/xlink">
    <!-- Generator: Sketch 50.2 (55047) - http://www.bohemiancoding.com/sketch -->
    <title>大数据 (2)</title>
    <desc>Created with Sketch.</desc>
    <defs></defs>
    <g id="Page-1" stroke="none" stroke-width="1" fill="none" fill-rule="evenodd">
        <g id="图标" transform="translate(-586.000000, -188.000000)">
            <g id="大数据-(2)" transform="translate(587.000000, 189.819114)">
                <circle id="Oval-8" stroke="#7EC257" stroke-width="2" cx="24.7940923" cy="24.1436642" r="24"></circle>
                <path d="M36.7420057,27.5763436 C36.6236698,27.5763436 36.5083876,27.5888277 36.3951264,27.6073156 L31.4668257,19.3097559 C31.9377445,18.745969 32.2257927,18.0067372 32.2257927,17.1944114 C32.2257927,15.4300995 30.8779301,14 29.2150738,14 C27.5522175,14 26.2043549,15.4300995 26.2043549,17.1944114 C26.2043549,18.2239229 26.665259,19.1372177 27.3782838,19.7215414 L21.8691263,30.7241539 C21.6189816,30.6526322 21.3572951,30.611082 21.086043,30.611082 C20.585978,30.611082 20.1150592,30.7424036 19.7001872,30.9714539 L15.1338104,25.2367613 C15.383589,24.8423839 15.5167255,24.3778732 15.5161681,23.9027228 C15.5161681,22.5795961 14.5051253,21.5069143 13.2580841,21.5069143 C12.0110429,21.5069143 11,22.5795961 11,23.9027228 C11,25.2258972 12.0110429,26.2985314 13.2580841,26.2985314 C13.4838534,26.2986774 13.7083617,26.262826 13.9240889,26.1921781 L18.5787124,32.0380842 C18.2497912,32.5614112 18.0746173,33.1765226 18.075369,33.805541 C18.075369,35.5698529 19.4232316,37 21.0860879,37 C22.7488993,37 24.0968068,35.5698529 24.0968068,33.8055886 C24.0968068,32.9050162 23.7442689,32.0930239 23.1791752,31.5122738 L28.7680467,20.3499409 C28.9143163,20.3729555 29.0627864,20.3889657 29.2151187,20.3889657 C29.5673872,20.3889657 29.9040272,20.3215418 30.2183025,20.2033239 L35.0677425,28.368609 C34.7061328,28.7934981 34.4839666,29.3547597 34.4839666,29.9722474 C34.4839666,31.2954217 35.4949645,32.3680559 36.7420057,32.3680559 C37.9891368,32.3680559 39,31.2954217 39,29.9722474 C39,28.6490254 37.9890919,27.5764389 36.7419608,27.5764389 L36.7420057,27.5763436 Z" id="Shape" fill="#506773" fill-rule="nonzero"></path>
            </g>
        </g>
    </g>
</svg>