<?xml version="1.0" encoding="UTF-8"?>
<svg width="51px" height="51px" viewBox="0 0 51 51" version="1.1" xmlns="http://www.w3.org/2000/svg" xmlns:xlink="http://www.w3.org/1999/xlink">
    <!-- Generator: Sketch 50.2 (55047) - http://www.bohemiancoding.com/sketch -->
    <title>Group 38</title>
    <desc>Created with Sketch.</desc>
    <defs></defs>
    <g id="Page-1" stroke="none" stroke-width="1" fill="none" fill-rule="evenodd">
        <g id="图标" transform="translate(-674.000000, -189.000000)">
            <g id="Group-38" transform="translate(675.000000, 190.319114)">
                <circle id="Oval-8" stroke="#394A5E" stroke-width="2" cx="24.1638755" cy="24.0768156" r="24"></circle>
                <path d="M16.4984384,19.8473774 L16.4984384,27.6171831 C16.4984384,28.5284529 17.2371685,29.2671831 18.1484384,29.2671831 L31.7626049,29.2671831 L31.7626049,21.4973774 C31.7626049,20.5861075 31.0238747,19.8473774 30.1126049,19.8473774 L16.4984384,19.8473774 Z M14.8484384,18.1973774 L30.1126049,18.1973774 C31.9351445,18.1973774 33.4126049,19.6748377 33.4126049,21.4973774 L33.4126049,30.9171831 L18.1484384,30.9171831 C16.3258987,30.9171831 14.8484384,29.4397227 14.8484384,27.6171831 L14.8484384,18.1973774 Z M16.4926999,20.25 L14.8426999,20.25 L14.8426999,15.7145838 L16.4926999,15.7145838 L16.4926999,20.25 Z M33.4058107,32.7121654 L31.7558107,32.7121654 L31.7558107,28.1767492 L33.4058107,28.1767492 L33.4058107,32.7121654 Z M15.75,16.670627 C14.3830952,16.670627 13.275,15.5625318 13.275,14.195627 C13.275,12.8287223 14.3830952,11.720627 15.75,11.720627 C17.1169048,11.720627 18.225,12.8287223 18.225,14.195627 C18.225,15.5625318 17.1169048,16.670627 15.75,16.670627 Z M15.75,15.020627 C16.2056349,15.020627 16.575,14.6512619 16.575,14.195627 C16.575,13.7399921 16.2056349,13.370627 15.75,13.370627 C15.2943651,13.370627 14.925,13.7399921 14.925,14.195627 C14.925,14.6512619 15.2943651,15.020627 15.75,15.020627 Z M32.5808107,36.7226273 C31.213906,36.7226273 30.1058107,35.6145321 30.1058107,34.2476273 C30.1058107,32.8807226 31.213906,31.7726273 32.5808107,31.7726273 C33.9477155,31.7726273 35.0558107,32.8807226 35.0558107,34.2476273 C35.0558107,35.6145321 33.9477155,36.7226273 32.5808107,36.7226273 Z M32.5808107,35.0726273 C33.0364457,35.0726273 33.4058107,34.7032623 33.4058107,34.2476273 C33.4058107,33.7919924 33.0364457,33.4226273 32.5808107,33.4226273 C32.1251758,33.4226273 31.7558107,33.7919924 31.7558107,34.2476273 C31.7558107,34.7032623 32.1251758,35.0726273 32.5808107,35.0726273 Z" id="Rectangle-5" fill="#506773" fill-rule="nonzero"></path>
            </g>
        </g>
    </g>
</svg>