<?xml version="1.0" encoding="UTF-8"?>
<svg width="140px" height="50px" viewBox="0 0 140 50" version="1.1" xmlns="http://www.w3.org/2000/svg" xmlns:xlink="http://www.w3.org/1999/xlink">
    <!-- Generator: Sketch 50 (54983) - http://www.bohemiancoding.com/sketch -->
    <title>Group 3</title>
    <desc>Created with Sketch.</desc>
    <defs></defs>
    <g id="Page-1" stroke="none" stroke-width="1" fill="none" fill-rule="evenodd">
        <g id="新建API-Copy-7" transform="translate(-29.000000, -13.000000)">
            <g id="Group-3" transform="translate(29.000000, 12.810416)">
                <text id="Orchsym-Studio" font-family="PingFang-SC-Medium, PingFang SC" font-size="12.6" font-weight="400" line-spacing="18.9" fill="#FFFFFF">
                    <tspan x="46.533466" y="45.445">Orchsym Studio</tspan>
                </text>
                <g id="Group-2" transform="translate(0.093513, 0.202052)" fill="#1AD0A6">
                    <path d="M20.575296,26.12736 L29.576988,21.350952 L29.576988,29.434104 L20.575296,34.210512 L20.575296,26.12736 Z M11.573604,29.1128517 L20.5629265,34.3028395 L20.5629265,38.7575217 L7.715736,31.3401929 L7.715736,16.5055351 L20.5629265,9.08820626 L20.5629265,13.5428885 L11.573604,18.7328763 L11.573604,29.1128517 Z M3.857868,33.567534 L20.5629265,43.212204 L20.5629265,47.6668863 L-4.26325641e-14,35.7948751 L-4.26325641e-14,12.0508529 L20.5629265,0.178841743 L20.5629265,4.633524 L3.857868,14.278194 L3.857868,33.567534 Z" id="Combined-Shape"></path>
                    <path d="M33.434856,16.491252 L20.5629265,9.05964003 L20.5629265,4.60495778 L37.292724,14.2639109 L37.292724,33.5818171 L20.5629265,43.2407702 L20.5629265,38.786088 L33.434856,31.354476 L33.434856,16.491252 Z" id="Combined-Shape"></path>
                </g>
                <text id="数聚蜂巢" font-family="PingFang-SC-Bold, PingFang SC" font-size="23.31" font-weight="bold" letter-spacing="-0.126000001" fill="#FFFFFF">
                    <tspan x="46.706534" y="25.315">数聚蜂巢</tspan>
                </text>
            </g>
        </g>
    </g>
</svg>