<?xml version="1.0" encoding="UTF-8"?>
<svg width="28px" height="28px" viewBox="0 0 28 28" version="1.1" xmlns="http://www.w3.org/2000/svg" xmlns:xlink="http://www.w3.org/1999/xlink">
    <!-- Generator: Sketch 50.2 (55047) - http://www.bohemiancoding.com/sketch -->
    <title>Group 41</title>
    <desc>Created with Sketch.</desc>
    <defs></defs>
    <g id="Page-1" stroke="none" stroke-width="1" fill="none" fill-rule="evenodd">
        <g id="图标" transform="translate(-233.000000, -304.000000)" fill="#506773" fill-rule="nonzero">
            <g id="Group-41" transform="translate(233.562688, 304.574788)">
                <path d="M21.8914971,9.5829941 C19.3004548,9.5829941 17.2,7.48253933 17.2,4.89149705 C17.2,2.30045478 19.3004548,0.2 21.8914971,0.2 C24.4825393,0.2 26.5829941,2.30045478 26.5829941,4.89149705 C26.5829941,7.48253933 24.4825393,9.5829941 21.8914971,9.5829941 Z M21.8914971,7.9829941 C23.5988837,7.9829941 24.9829941,6.59888373 24.9829941,4.89149705 C24.9829941,3.18411038 23.5988837,1.8 21.8914971,1.8 C20.1841104,1.8 18.8,3.18411038 18.8,4.89149705 C18.8,6.59888373 20.1841104,7.9829941 21.8914971,7.9829941 Z M13.5,18.1914971 C10.9089577,18.1914971 8.80850295,16.0910423 8.80850295,13.5 C8.80850295,10.9089577 10.9089577,8.80850295 13.5,8.80850295 C16.0910423,8.80850295 18.1914971,10.9089577 18.1914971,13.5 C18.1914971,16.0910423 16.0910423,18.1914971 13.5,18.1914971 Z M13.5,16.5914971 C15.2073867,16.5914971 16.5914971,15.2073867 16.5914971,13.5 C16.5914971,11.7926133 15.2073867,10.4085029 13.5,10.4085029 C11.7926133,10.4085029 10.4085029,11.7926133 10.4085029,13.5 C10.4085029,15.2073867 11.7926133,16.5914971 13.5,16.5914971 Z M4.89149705,26.8 C2.30045478,26.8 0.2,24.6995452 0.2,22.1085029 C0.2,19.5174607 2.30045478,17.4170059 4.89149705,17.4170059 C7.48253933,17.4170059 9.5829941,19.5174607 9.5829941,22.1085029 C9.5829941,24.6995452 7.48253933,26.8 4.89149705,26.8 Z M4.89149705,25.2 C6.59888373,25.2 7.9829941,23.8158896 7.9829941,22.1085029 C7.9829941,20.4011163 6.59888373,19.0170059 4.89149705,19.0170059 C3.18411038,19.0170059 1.8,20.4011163 1.8,22.1085029 C1.8,23.8158896 3.18411038,25.2 4.89149705,25.2 Z M21.2060762,8.93595174 L22.8060762,8.93595174 L22.8060762,14.4265665 L17.8294301,14.4265665 L17.8294301,12.8265665 L21.2060762,12.8265665 L21.2060762,8.93595174 Z M6.03535187,18.0574347 L4.43535187,18.0574347 L4.43535187,12.9989645 L9.03540289,12.9989645 L9.03540289,14.5989645 L6.03535187,14.5989645 L6.03535187,18.0574347 Z" id="Oval-7"></path>
            </g>
        </g>
    </g>
</svg>