<?xml version="1.0" encoding="UTF-8"?>
<svg width="29px" height="27px" viewBox="0 0 29 27" version="1.1" xmlns="http://www.w3.org/2000/svg" xmlns:xlink="http://www.w3.org/1999/xlink">
    <!-- Generator: Sketch 50.2 (55047) - http://www.bohemiancoding.com/sketch -->
    <title>文件</title>
    <desc>Created with Sketch.</desc>
    <defs></defs>
    <g id="Page-1" stroke="none" stroke-width="1" fill="none" fill-rule="evenodd">
        <g id="图标" transform="translate(-526.000000, -302.000000)" fill="#506773" fill-rule="nonzero">
            <g id="文件" transform="translate(526.302191, 302.500000)">
                <path d="M26.3530274,3.24998556 L12.861821,3.24998556 L11.6700262,0.899793218 C11.3893195,0.347539639 10.824742,0 10.1967044,0 L1.64697266,0 C0.739048749,0 0,0.726818323 0,1.62022324 L0,21.8803704 C0,24.1147644 1.64131809,25.9325907 3.91172852,25.9325907 C4.05080739,25.9325907 4.11760742,25.9254508 4.11760742,25.9127321 L4.11760742,26 L23.8824219,26 C26.1519534,26 28,24.1822027 28,21.9478087 L28,4.86228847 C28.0000293,3.96810306 27.2601602,3.24998553 26.3530274,3.24998556 Z M26.3530274,21.9478087 C26.3530274,23.2879594 25.2447912,24.3749783 23.8824512,24.3749783 L7.35699936,24.3749783 C7.90704498,23.5625397 8.23521485,22.8222222 8.23521485,21.8803704 L8.23521485,13.8125253 L26.3530567,13.8125253 L26.3530567,21.9478087 L26.3530274,21.9478087 Z M6.58815429,12.1875325 L6.58815429,21.8803704 C6.58815429,23.2213306 5.47988883,24.3115002 4.11763671,24.3115002 C2.75526741,24.3115002 1.64700195,23.2213017 1.64700195,21.8803704 L1.64700195,1.62502169 L10.1967044,1.62502169 L11.3884992,3.97524293 C11.6692059,4.52668712 12.2329631,4.87500722 12.861821,4.87500722 L26.3530567,4.87500722 L26.3530567,12.1875325 L6.58815429,12.1875325 Z" id="Shape"></path>
            </g>
        </g>
    </g>
</svg>