<?xml version="1.0" encoding="UTF-8"?>
<svg width="32px" height="26px" viewBox="0 0 32 26" version="1.1" xmlns="http://www.w3.org/2000/svg" xmlns:xlink="http://www.w3.org/1999/xlink">
    <!-- Generator: Sketch 50.2 (55047) - http://www.bohemiancoding.com/sketch -->
    <title>大数据 (2)</title>
    <desc>Created with Sketch.</desc>
    <defs></defs>
    <g id="Page-1" stroke="none" stroke-width="1" fill="none" fill-rule="evenodd">
        <g id="图标" transform="translate(-588.000000, -302.000000)" fill="#506773" fill-rule="nonzero">
            <g id="大数据-(2)" transform="translate(588.302191, 302.500000)">
                <path d="M28.5000778,14.7568952 C28.369063,14.7568952 28.2414291,14.7704649 28.1160328,14.7905605 L22.6596998,5.77147379 C23.1810743,5.15866192 23.4999848,4.35514913 23.4999848,3.47218626 C23.4999848,1.55445594 22.0077084,0 20.1666889,0 C18.3256693,0 16.8333929,1.55445594 16.8333929,3.47218626 C16.8333929,4.59122051 17.3436796,5.58393223 18.1330999,6.21906678 L12.0336756,18.1784281 C11.7567296,18.1006872 11.4670053,18.0555239 11.1666905,18.0555239 C10.6130471,18.0555239 10.0916727,18.1982647 9.63235009,18.4472325 L4.5767187,12.2138709 C4.85325924,11.7851999 5.00066042,11.2802969 5.00004331,10.7638292 C5.00004331,9.32564798 3.88067441,8.15968949 2.50002165,8.15968949 C1.1193689,8.15968949 0,9.32564798 0,10.7638292 C0,12.2020622 1.1193689,13.3679689 2.50002165,13.3679689 C2.74998056,13.3681276 2.99854333,13.3291587 3.2373841,13.2523674 L8.39071725,19.6066133 C8.02655454,20.175447 7.83261206,20.8440463 7.83344427,21.527762 C7.83344427,23.4454923 9.32572067,25 11.1667402,25 C13.00771,25 14.5000361,23.4454923 14.5000361,21.5278137 C14.5000361,20.5489307 14.1097262,19.6663304 13.4840869,19.0350803 L19.671766,6.90210962 C19.8337073,6.92712552 19.9980849,6.94452789 20.1667386,6.94452789 C20.5567501,6.94452789 20.9294587,6.87124114 21.2774063,6.74274332 L26.6464291,15.6180533 C26.2460756,16.0798893 26.0001059,16.6899561 26.0001059,17.3611384 C26.0001059,18.7993714 27.119425,19.9652781 28.5000778,19.9652781 C29.88083,19.9652781 31,18.7993714 31,17.3611384 C31,15.9228537 29.8807803,14.7569988 28.5000281,14.7569988 L28.5000778,14.7568952 Z" id="Shape"></path>
            </g>
        </g>
    </g>
</svg>