<?xml version="1.0" encoding="UTF-8"?>
<svg width="50px" height="50px" viewBox="0 0 50 50" version="1.1" xmlns="http://www.w3.org/2000/svg" xmlns:xlink="http://www.w3.org/1999/xlink">
    <!-- Generator: Sketch 50.2 (55047) - http://www.bohemiancoding.com/sketch -->
    <title>Group 40</title>
    <desc>Created with Sketch.</desc>
    <defs></defs>
    <g id="Page-1" stroke="none" stroke-width="1" fill="none" fill-rule="evenodd">
        <g id="图标" transform="translate(-148.000000, -106.000000)">
            <g id="Group-40" transform="translate(149.828352, 107.895826)">
                <circle id="Oval-8" stroke="#5F67FA" stroke-width="2" cx="23.4748329" cy="23.4748329" r="23.4748329"></circle>
                <path d="M18.5842427,17.6061247 L18.5842427,16.6280066 L27.387305,16.6280066 L27.387305,17.6061247 L18.5842427,17.6061247 Z M18.5842427,29.3435411 L18.5842427,28.3654231 L29.3435411,28.3654231 L29.3435411,29.3435411 L18.5842427,29.3435411 Z M18.5842427,21.5185968 L18.5842427,20.5404788 L33.2560133,20.5404788 L33.2560133,21.5185968 L18.5842427,21.5185968 Z M18.5842427,25.431069 L18.5842427,24.4529509 L33.2560133,24.4529509 L33.2560133,25.431069 L18.5842427,25.431069 Z M34.4666531,17.1816696 L29.6834804,12.2810724 L29.6834804,17.1816696 L34.4666531,17.1816696 Z M28.3654231,11.2082409 L16.5162217,11.2082409 C16.2736831,11.2082409 16.0770667,11.4079024 16.0770667,11.6541973 L16.0770667,27.6713828 C15.6322711,28.4120087 15.163839,28.4120087 14.6717706,27.6713828 L14.6717706,11.6541973 C14.6717706,10.6197586 15.4975595,9.78118037 16.5162217,9.78118037 L29.2221082,9.78118037 L36.1903674,16.920507 L36.1903674,32.5365108 C36.1903674,34.0142804 35.0106689,35.2122493 33.5554372,35.2122493 L16.5162217,35.2122493 C15.9227798,34.7420709 15.9227798,34.266384 16.5162217,33.7851888 L33.5554372,33.7851888 C34.2345453,33.7851888 34.7850713,33.2261366 34.7850713,32.5365108 L34.7850713,18.5842427 L28.3654231,18.5842427 L28.3654231,11.2082409 Z M12.8034714,31.2997772 L20.5404788,31.2997772 L20.5404788,32.2778952 L12.7155345,32.2778952 L12.7155345,31.4184281 L12.275404,32.0122843 L13.6936525,34.5361816 L12.6153612,35.2122493 L10.7592984,31.9092233 L12.6608277,29.3435411 L13.648186,30.1600265 L12.8034714,31.2997772 Z" id="Rectangle-4-Copy" fill="#506773"></path>
            </g>
        </g>
    </g>
</svg>