<?xml version="1.0" encoding="UTF-8"?>
<svg width="51px" height="51px" viewBox="0 0 51 51" version="1.1" xmlns="http://www.w3.org/2000/svg" xmlns:xlink="http://www.w3.org/1999/xlink">
    <!-- Generator: Sketch 50.2 (55047) - http://www.bohemiancoding.com/sketch -->
    <title>Group 34</title>
    <desc>Created with Sketch.</desc>
    <defs></defs>
    <g id="Page-1" stroke="none" stroke-width="1" fill="none" fill-rule="evenodd">
        <g id="图标" transform="translate(-311.000000, -104.000000)">
            <g id="Group-34" transform="translate(312.311272, 105.845492)">
                <circle id="Oval-8" stroke="#5F67FA" stroke-width="2" cx="24" cy="24" r="24"></circle>
                <polygon id="Path" fill="#506773" points="35 16.5660493 35 18 27 18 27 10 28.4339507 10 28.4339507 16.5660493"></polygon>
                <path d="M34.6746988,30.4607873 L35.8112138,29.5655999 L38,32.3785913 L35.8635487,36 L34.6223639,35.2587653 L36.254862,32.4915865 L34.6746988,30.4607873 Z M34.6581466,17.8628649 L34.6581466,27.7990816 C34.6581466,28.1976555 34.9812546,28.5207636 35.3798286,28.5207636 L35.3798286,28.5207636 C35.7784025,28.5207636 36.1015106,28.1976555 36.1015106,27.7990816 L36.1015106,17.2651174 L28.9444893,10 L15.8944152,10 C14.8481586,10 14,10.8533535 14,11.9060184 L14,33.9731312 C14,35.0257961 14.8481586,35.8791496 15.8944152,35.8791496 L31.3613549,35.8791496 C31.7623701,35.8791496 32.0874572,35.5540625 32.0874572,35.1530473 L32.0874572,35.1530473 C32.0874572,34.7520321 31.7623701,34.4269451 31.3613549,34.4269451 L15.8944152,34.4269451 C15.6453065,34.4269451 15.443364,34.2237657 15.443364,33.9731312 L15.443364,11.9060184 C15.443364,11.6553839 15.6453065,11.4522045 15.8944152,11.4522045 L28.3428691,11.4522045 L34.6581466,17.8628649 Z M17.3828843,18.6678458 L17.3828843,17.2156412 L26.403909,17.2156412 L26.403909,18.6678458 L17.3828843,18.6678458 Z M17.3828843,30.7392959 L17.3828843,29.2870914 L28.9297959,29.2870914 L28.9297959,30.7392959 L17.3828843,30.7392959 Z M17.3828843,22.5479439 L17.3828843,21.0957394 L32.718791,21.0957394 L32.718791,22.5479439 L17.3828843,22.5479439 Z M17.3828843,26.4880476 L17.3828843,25.0358431 L32.718791,25.0358431 L32.718791,26.4880476 L17.3828843,26.4880476 Z M29.6178702,33.194019 L29.6178702,31.7418145 L37.3759514,31.7418145 L37.3759514,33.194019 L29.6178702,33.194019 Z" id="Path-5" fill="#506773" fill-rule="nonzero"></path>
            </g>
        </g>
    </g>
</svg>