<?xml version="1.0" encoding="UTF-8"?>
<svg width="50px" height="50px" viewBox="0 0 50 50" version="1.1" xmlns="http://www.w3.org/2000/svg" xmlns:xlink="http://www.w3.org/1999/xlink">
    <!-- Generator: Sketch 50.2 (55047) - http://www.bohemiancoding.com/sketch -->
    <title>Group 29</title>
    <desc>Created with Sketch.</desc>
    <defs></defs>
    <g id="Page-1" stroke="none" stroke-width="1" fill="none" fill-rule="evenodd">
        <g id="图标" transform="translate(-498.000000, -192.000000)">
            <g id="Group-29" transform="translate(498.205908, 192.856336)">
                <circle id="Oval-8" stroke="#F3BF25" stroke-width="2" cx="24.7940923" cy="24.1436642" r="24"></circle>
                <path d="M16.2940923,14.6436642 L16.2940923,35.6436642 L33.2940923,35.6436642 L33.2940923,14.6436642 L16.2940923,14.6436642 Z M14.7940923,13.1436642 L34.7940923,13.1436642 L34.7940923,37.1436642 L14.7940923,37.1436642 L14.7940923,13.1436642 Z M18.0440923,23.3936642 L18.0440923,21.8936642 L31.5856869,21.8936642 L31.5856869,23.3936642 L18.0440923,23.3936642 Z M18.0440923,29.1692781 L18.0440923,27.6692781 L31.5856869,27.6692781 L31.5856869,29.1692781 L18.0440923,29.1692781 Z M19.5440923,10.8936642 L21.0440923,10.8936642 L21.0440923,17.778829 L19.5440923,17.778829 L19.5440923,10.8936642 Z M28.5964012,10.8936642 L30.0964012,10.8936642 L30.0964012,17.778829 L28.5964012,17.778829 L28.5964012,10.8936642 Z" id="Rectangle-4" fill="#506773" fill-rule="nonzero"></path>
            </g>
        </g>
    </g>
</svg>