<?xml version="1.0" encoding="UTF-8"?>
<svg width="28px" height="28px" viewBox="0 0 28 28" version="1.1" xmlns="http://www.w3.org/2000/svg" xmlns:xlink="http://www.w3.org/1999/xlink">
    <!-- Generator: Sketch 50.2 (55047) - http://www.bohemiancoding.com/sketch -->
    <title>Fill 19</title>
    <desc>Created with Sketch.</desc>
    <defs></defs>
    <g id="Page-1" stroke="none" stroke-width="1" fill="none" fill-rule="evenodd">
        <g id="图标" transform="translate(-159.000000, -305.000000)" fill="#506773">
            <path d="M170.97519,326.057547 C165.83343,326.057547 161.665254,321.894689 161.665254,316.751357 C161.665254,311.608025 165.83343,307.436857 170.97519,307.436857 C176.116949,307.436857 180.285943,311.608025 180.285943,316.751357 C180.285943,321.894689 176.116949,326.057547 170.97519,326.057547 L170.97519,326.057547 Z M186.54683,331.106205 L179.576501,324.244373 C181.401159,322.26094 182.522792,319.644498 182.522792,316.757971 C182.522792,310.57979 177.437044,305.574788 171.162989,305.574788 C164.888934,305.574788 159.803185,310.57979 159.803185,316.757971 C159.803185,322.927711 164.888934,327.932713 171.162989,327.932713 C173.873812,327.932713 176.360141,326.995858 178.313082,325.434432 L185.311261,332.321584 C185.653068,332.65919 186.205867,332.65919 186.54683,332.321584 C186.888637,331.992419 186.888637,331.44381 186.54683,331.106205 L186.54683,331.106205 Z" id="Fill-19"></path>
        </g>
    </g>
</svg>